<svg height="512pt" viewBox="0 -58 512.001 512" width="512pt" xmlns="http://www.w3.org/2000/svg"><g fill-rule="evenodd"><path d="m460.3125 91.066406c-5.941406-25.117187-28.476562-43.574218-55.199219-43.574218-2.738281 0-5.460937.195312-8.15625.585937-16.140625-29.457031-47.171875-48.078125-81.183593-48.078125-30.554688 0-58.683594 14.90625-75.875 39.550781-17.644532-11.9375-38.761719-18.707031-60.96875-18.707031-26.089844 0-51.320313 9.378906-71.046876 26.40625-17.199218 14.84375-29.289062 34.652344-34.636718 56.496094-40.414063.164062-73.246094 33.097656-73.246094 73.550781 0 40.558594 32.996094 73.550781 73.550781 73.550781h277.703125c31.628906 0 57.652344-24.390625 60.28125-55.351562h48.25c28.792969 0 52.214844-23.425782 52.214844-52.214844 0-28.617188-23.136719-51.933594-51.6875-52.214844zm-109.058594 139.78125h-277.703125c-29.527343 0-53.550781-24.019531-53.550781-53.550781 0-29.527344 24.023438-53.550781 53.550781-53.550781 2.191407 0 4.402344.132812 6.570313.402344 5.351562.65625 10.261718-3.050782 11.097656-8.378907 6.804688-43.414062 43.691406-74.925781 87.710938-74.925781 21.605468 0 41.949218 7.84375 57.730468 21.339844 8.074219 6.921875 14.894532 15.3125 20.03125 24.589844.136719.25.277344.5.414063.75.253906.472656.503906.949218.75 1.425781.246093.476562.488281.957031.726562 1.441406.175781.351563.351563.707031.523438 1.0625.417969.878906.828125 1.761719 1.21875 2.660156.128906.289063.269531.570313.417969.84375.246093.445313.527343.855469.832031 1.25 1.371093 1.78125 3.285156 3.03125 5.414062 3.582031 1.730469.449219 3.601563.4375 5.417969-.117187 3.796875-1.160156 7.730469-1.820313 11.71875-1.964844.570312-.023437 1.140625-.03125 1.714844-.03125 6.117187 0 11.964844 1.195313 17.316406 3.371094 16.046875 6.523437 27.609375 21.867187 28.53125 40.183594.054688 1.085937.285156 2.140625.671875 3.128906.035156.085937.078125.167969.113281.253906.101563.238281.203125.480469.324219.714844.652344 1.253906 1.566406 2.375 2.707031 3.265625.183594.144531.375.269531.5625.398438.109375.070312.210938.15625.324219.222656.011719.007812.023437.015625.039063.023437 2.117187 1.304688 4.664062 1.785157 7.132812 1.308594h.003906.011719c2.289063-.441406 4.625-.671875 6.957031-.714844.242188-.003906.480469-.015625.722656-.015625h.011719c.679688 0 1.359375.019532 2.03125.050782.109375.007812.21875.019531.328125.023437.582032.035156 1.164063.074219 1.738282.132813.042968.003906.085937.011718.132812.015624 18.253906 1.910157 32.9375 15.988282 35.773438 33.957032.011718.078125.027343.15625.039062.230468.078125.496094.132812.996094.191406 1.496094.019532.191406.050782.378906.066406.574219.132813 1.328125.203126 2.675781.203126 4.039063 0 22.335937-18.175782 40.511718-40.519532 40.511718zm108.527344-55.351562h-49.84375c-.023438-.085938-.050781-.175782-.070312-.261719-.003907-.011719-.007813-.019531-.007813-.03125-.238281-.917969-.5-1.824219-.777344-2.730469-.023437-.074218-.046875-.152344-.070312-.230468-3.164063-10.113282-8.957031-19.289063-16.925781-26.578126-5.871094-5.367187-12.671876-9.464843-19.992188-12.152343-.066406-.023438-.136719-.046875-.207031-.070313-.828125-.300781-1.664063-.585937-2.503907-.851562-.171874-.050782-.34375-.101563-.515624-.152344-.746094-.230469-1.5-.445312-2.253907-.644531-.242187-.0625-.484375-.121094-.726562-.179688-.699219-.171875-1.402344-.339843-2.109375-.488281-.28125-.058594-.566406-.113281-.851563-.167969-.675781-.132812-1.355469-.257812-2.039062-.367187-.308594-.046875-.621094-.09375-.929688-.140625-.667969-.097657-1.339843-.183594-2.011719-.253907-.328124-.039062-.652343-.070312-.980468-.101562-.660156-.0625-1.324219-.113281-1.988282-.152344-.347656-.019531-.699218-.042968-1.050781-.058594-.628906-.027343-1.261719-.039062-1.890625-.046874-.261718-.003907-.519531-.019532-.777344-.019532-.316406 0-.628906 0-.945312.007813-5.34375-25.277344-25.085938-45.027344-50.09375-50.582031-4.632812-1.027344-9.445312-1.570313-14.378906-1.570313-.910156 0-1.820313.019531-2.730469.058594-.070313.003906-.140625.007812-.210937.011719-.835938.039062-1.671876.085937-2.503907.15625-.203125.015624-.402343.042968-.601562.058593-.703125.066407-1.402344.128907-2.105469.21875-.132812.015625-.265625.039063-.398438.058594-.761718.097656-1.523437.203125-2.28125.328125-5.230468-9.835938-11.867187-18.667969-19.585937-26.296875 13.390625-20.074219 35.886719-32.265625 60.355469-32.265625 28.847656 0 54.957031 17.085938 66.515625 43.527344 2.03125 4.648437 7.226562 7.042968 12.078125 5.558594 3.472656-1.058594 7.089844-1.597657 10.746094-1.597657 19.582031 0 35.691406 15.304688 36.679687 34.839844.144531 2.890625 1.539063 5.578125 3.8125 7.363281 2.277344 1.785156 5.21875 2.5 8.0625 1.953125 2.007813-.386719 4.066406-.582031 6.117187-.582031 17.765626 0 32.214844 14.453125 32.214844 32.21875-.003906 17.761719-14.457031 32.214844-32.222656 32.214844zm0 0"/><path d="m167.675781 278.765625c-5.050781-2.242187-10.957031.035156-13.199219 5.082031l-43.992187 99.066406c-2.242187 5.046876.03125 10.953126 5.082031 13.195313 1.316406.585937 2.695313.863281 4.050782.863281 3.832031 0 7.488281-2.214844 9.144531-5.941406l43.992187-99.066406c2.242188-5.046875-.03125-10.957032-5.078125-13.199219zm0 0"/><path d="m243.929688 278.765625c-5.050782-2.242187-10.957032.035156-13.199219 5.082031l-27.753907 62.5c-2.242187 5.046875.03125 10.957032 5.078126 13.199219 1.320312.585937 2.699218.863281 4.054687.863281 3.832031 0 7.488281-2.214844 9.144531-5.945312l27.753906-62.5c2.242188-5.046875-.03125-10.957032-5.078124-13.199219zm0 0"/><path d="m320.183594 278.765625c-5.046875-2.242187-10.957032.035156-13.199219 5.082031l-43.992187 99.066406c-2.242188 5.046876.03125 10.953126 5.078124 13.195313 1.320313.585937 2.699219.863281 4.054688.863281 3.832031 0 7.488281-2.214844 9.144531-5.941406l43.992188-99.066406c2.242187-5.046875-.03125-10.957032-5.078125-13.199219zm0 0"/><path d="m396.433594 278.765625c-5.046875-2.242187-10.953125.035156-13.195313 5.082031l-27.757812 62.5c-2.242188 5.046875.035156 10.957032 5.082031 13.199219 1.320312.585937 2.695312.863281 4.050781.863281 3.835938 0 7.492188-2.214844 9.148438-5.945312l27.753906-62.5c2.242187-5.046875-.03125-10.957032-5.082031-13.199219zm0 0"/><path d="m195.875 376.96875c-5.507812 0-10 4.492188-10 10s4.492188 10 10 10c5.511719 0 10.003906-4.492188 10.003906-10s-4.492187-10-10.003906-10zm0 0"/><path d="m348.382812 376.96875c-5.507812 0-10 4.492188-10 10s4.492188 10 10 10c5.511719 0 10.003907-4.492188 10.003907-10s-4.492188-10-10.003907-10zm0 0"/></g></svg>