<svg height="512pt" viewBox="0 0 512 512.00011" width="512pt" xmlns="http://www.w3.org/2000/svg"><path d="m322 146c-5.523438 0-10 4.480469-10 10s4.476562 10 10 10c5.519531 0 10-4.480469 10-10s-4.480469-10-10-10zm0 0"/><path d="m410.484375 106.335938c-24.28125-59.820313-87.863281-106.335938-154.484375-106.335938-83.179688 0-154.496094 68.027344-164.714844 146.019531-.429687-.003906-.855468-.019531-1.285156-.019531-49.625 0-90 40.371094-90 90 0 40.382812 26.871094 75.644531 65.425781 86.585938l-3.578125 11.382812c-8.136718 25.6875 11.175782 52.027344 38.152344 52.027344 27.074219 0 46.257812-26.441406 38.160156-52.007813l-2.515625-7.988281h54.171875l-2.761718 5.527344c-1.550782 3.097656-1.382813 6.78125.4375 9.726562 1.820312 2.949219 5.039062 4.742188 8.507812 4.742188h50v70c0 4.640625 3.1875 8.667968 7.699219 9.734375 4.480469 1.058593 9.15625-1.085938 11.242187-5.261719l47.238282-94.46875h64.171874l-2.503906 7.96875c-8.140625 25.6875 11.171875 52.027344 38.148438 52.027344 27.074218 0 46.257812-26.441406 38.160156-52.007813l-5.242188-16.6875c40.5-17.082031 67.082032-56.621093 67.082032-101.304687 0-58.359375-45.144532-105.378906-101.511719-109.660156zm-310.484375 259.660156c-13.546875 0-23.128906-13.226563-19.082031-26.007813l19.082031-60.664062 12.460938 39.625c.007812.015625.011718.03125.015624.050781l6.609376 21.007812c4.039062 12.757813-5.542969 25.988282-19.085938 25.988282zm156-39.996094h-43.820312l33.820312-67.640625v37.640625c0 5.519531 4.476562 10 10 10h43.816406l-33.816406 67.636719v-37.640625c0-5.519532-4.476562-9.996094-10-9.996094zm155.996094 39.996094c-13.515625 0-23.132813-13.195313-19.078125-26.007813l6.601562-20.988281c.003907-.019531.011719-.035156.015625-.054688l12.464844-39.625 19.085938 60.6875c4.035156 12.757813-5.546876 25.988282-19.089844 25.988282zm26.882812-67.878906-17.34375-55.121094c-1.308594-4.164063-5.171875-6.996094-9.539062-6.996094-4.367188 0-8.226563 2.832031-9.539063 6.996094l-19.8125 63.003906h-60.464843l2.761718-5.53125c1.550782-3.097656 1.386719-6.78125-.4375-9.726562-1.820312-2.949219-5.039062-4.742188-8.503906-4.742188h-50v-70c0-4.640625-3.191406-8.667969-7.703125-9.734375-4.519531-1.066406-9.167969 1.113281-11.242187 5.261719l-47.234376 94.472656h-70.464843l-19.816407-63.003906c-1.3125-4.164063-5.171874-6.996094-9.539062-6.996094s-8.230469 2.832031-9.539062 6.996094l-19.027344 60.488281c-29.835938-8.226563-51.433594-35.871094-51.433594-67.484375 0-38.597656 31.402344-70 70-70 17.066406 0 33.398438 6.109375 46.300781 17.496094 4.140625 3.65625 10.460938 3.261718 14.117188-.878906 3.652343-4.140626 3.257812-10.460938-.882813-14.113282-11.089844-9.792968-24.234375-16.609375-38.421875-20.007812 9.035157-70.507813 73.410157-128.496094 144.886719-128.496094 54.261719 0 109.085938 36.519531 132.863281 86.796875-14.792969 1.773437-29.109375 6.515625-41.996093 13.996094-4.773438 2.769531-6.398438 8.890625-3.628907 13.667969 2.773438 4.773437 8.894531 6.398437 13.671875 3.628906 13.621094-7.910156 29.214844-12.089844 45.089844-12.089844.355469 0 .714844-.003906 1.070312.011719.085938.003906.167969.003906.253907.007812 48.894531.699219 88.675781 41.0625 88.675781 89.980469-.003906 35.90625-20.980469 67.753906-53.121094 82.117188zm0 0"/><path d="m324.941406 440.46875 20-40c2.472656-4.9375.46875-10.945312-4.472656-13.414062-4.9375-2.472657-10.945312-.46875-13.414062 4.472656l-20 40c-2.46875 4.9375-.46875 10.945312 4.472656 13.414062 4.9375 2.46875 10.945312.46875 13.414062-4.472656zm0 0"/><path d="m245.167969 505.984375 20-46c2.203125-5.0625-.117188-10.957031-5.183594-13.15625-5.0625-2.203125-10.953125.117187-13.15625 5.183594l-20 46c-2.203125 5.0625.117187 10.953125 5.183594 13.15625 5.074219 2.207031 10.960937-.128907 13.15625-5.183594zm0 0"/><path d="m105.171875 505.984375 20-46c2.199219-5.0625-.121094-10.957031-5.183594-13.15625-5.066406-2.203125-10.957031.117187-13.160156 5.183594l-20 46c-2.203125 5.0625.121094 10.953125 5.183594 13.15625 5.078125 2.207031 10.960937-.128907 13.160156-5.183594zm0 0"/><path d="m184.945312 440.46875 20-40c2.46875-4.9375.464844-10.945312-4.472656-13.414062-4.941406-2.472657-10.949218-.46875-13.417968 4.472656l-20 40c-2.46875 4.9375-.46875 10.945312 4.472656 13.414062s10.949218.46875 13.417968-4.472656zm0 0"/></svg>